<svg version="1.1" id="Layer_1" xmlns="http://www.w3.org/2000/svg" xmlns:xlink="http://www.w3.org/1999/xlink" x="0px" y="0px"
	 width="100%" viewBox="0 0 200 200" enable-background="new 0 0 200 200" xml:space="preserve">
<path fill="#FFFFFF" opacity="1.000000" stroke="none" 
	d="
M123.000000,201.000000 
	C82.025322,201.000000 41.550652,201.000000 1.037988,201.000000 
	C1.037988,134.400360 1.037988,67.800705 1.037988,1.100519 
	C67.557831,1.100519 134.115875,1.100519 200.836945,1.100519 
	C200.836945,67.666344 200.836945,134.333145 200.836945,201.000000 
	C175.134323,201.000000 149.317154,201.000000 123.000000,201.000000 
M110.999092,123.998436 
	C110.999092,123.998436 110.988556,124.013092 111.668083,124.010620 
	C112.444206,123.671921 113.220337,123.333229 114.675232,122.997223 
	C115.127937,122.980225 115.580650,122.963226 116.059517,123.669952 
	C117.389122,125.104362 118.718727,126.538773 120.260345,128.242157 
	C120.260345,128.242157 120.311752,128.580765 120.144913,129.422058 
	C120.909264,130.526001 121.673615,131.629929 122.798714,133.127853 
	C122.950928,133.634277 123.103149,134.140717 123.117325,135.336121 
	C123.487404,135.854721 123.857475,136.373306 124.635178,137.308197 
	C124.784172,137.865784 124.933174,138.423370 124.538849,139.431686 
	C125.348984,143.537674 123.926216,148.489227 129.118805,151.524582 
	C129.161346,151.887970 129.203873,152.251373 129.075821,153.325668 
	C129.310165,154.051956 129.544510,154.778259 129.778854,155.504547 
	C130.534637,155.025375 131.290436,154.546204 132.767685,153.878006 
	C133.180313,152.262421 133.592957,150.646835 133.991425,149.003677 
	C133.991425,149.003677 134.022049,148.999420 134.616425,148.950867 
	C134.707123,148.289841 134.797836,147.628830 134.917770,146.175827 
	C135.118759,145.142349 135.319733,144.108871 136.149918,142.788635 
	C136.766800,139.954483 138.833542,137.397598 136.483215,134.160934 
	C134.977493,132.087372 136.675491,130.904312 139.217545,131.235779 
	C139.217545,131.235779 139.256088,131.551727 139.142136,132.305603 
	C141.219452,136.130173 144.896515,136.886963 148.528915,133.798950 
	C149.247681,133.464966 149.966446,133.130981 151.434280,132.871887 
	C152.905304,130.726303 155.916443,128.211594 155.510056,126.515968 
	C154.780792,123.473228 152.512634,120.181313 149.922806,118.382729 
	C147.509766,116.706932 146.330719,115.809029 148.460846,112.908264 
	C148.799988,112.837044 149.139114,112.765823 150.119614,112.724968 
	C150.407745,112.432976 150.695892,112.140991 151.188293,111.659920 
	C151.188293,111.659920 151.466537,111.667725 152.237000,111.831978 
	C155.460052,109.394005 158.782181,107.069191 161.814987,104.413933 
	C162.361969,103.935043 161.719223,102.097244 161.612122,100.337555 
	C161.405609,99.856018 161.199112,99.374481 160.826813,98.553696 
	C160.549255,98.679367 160.271698,98.805038 159.487015,99.120598 
	C159.132050,99.177299 158.777069,99.233994 157.838287,99.222588 
	C157.558594,99.473305 157.278885,99.724022 156.994431,100.007011 
	C156.994431,100.007011 156.968430,99.987175 156.064957,99.919296 
	C154.131042,99.964455 152.131287,99.721222 150.283386,100.143135 
	C148.716187,100.500961 147.324417,101.627243 145.179779,102.695473 
	C144.453278,102.735817 143.726791,102.776154 142.356583,102.307884 
	C137.235306,101.894920 132.114014,101.481949 127.010071,100.502045 
	C127.014816,100.313034 127.019562,100.124023 127.562149,99.430962 
	C127.355904,96.669670 127.149658,93.908371 126.973549,90.354698 
	C125.812157,88.560051 124.518951,86.835564 123.518120,84.955444 
	C121.700241,81.540436 120.056244,78.032860 118.339676,74.563919 
	C118.793587,74.619850 119.247498,74.675774 119.701408,74.731705 
	C120.144676,70.156967 120.587944,65.582230 120.976494,60.529377 
	C120.976494,60.529377 121.021904,60.050312 121.566948,59.825653 
	C121.820633,59.316811 122.074326,58.807964 122.380234,58.150295 
	C122.380234,58.150295 122.357506,58.307899 122.839890,58.259060 
	C123.122620,58.098652 123.418175,57.967037 124.308517,57.715275 
	C124.487709,57.374401 124.666901,57.033527 124.800751,56.250961 
	C124.800751,56.250961 124.591667,55.859261 125.065178,55.488907 
	C125.687431,54.985767 126.309692,54.482628 127.687775,54.007885 
	C129.911499,52.395061 132.145523,50.795197 134.292313,49.085751 
	C134.340149,49.047649 133.394592,47.762016 132.444046,46.917294 
	C132.444046,46.917294 131.996964,46.718811 131.818802,46.453644 
	C131.504700,46.262871 131.234497,46.321991 130.139099,46.736263 
	C128.094345,46.823112 126.049583,46.909962 123.570969,46.471012 
	C121.399590,47.685501 119.228218,48.899986 116.759171,50.553101 
	C116.276253,50.750832 115.793343,50.948563 114.733116,51.208263 
	C114.506180,51.503571 114.279243,51.798878 114.025536,51.999916 
	C114.025536,51.999916 114.086067,52.077015 113.278038,51.989388 
	C112.188011,50.708580 110.983902,49.505592 110.041512,48.124073 
	C109.178787,46.859333 108.598846,45.401691 107.491699,43.576580 
	C106.667809,42.691200 105.843910,41.805817 104.989433,40.123962 
	C102.426567,37.007862 98.966179,37.136101 97.324196,40.282600 
	C97.324196,40.282600 97.329659,40.429432 96.622025,40.199455 
	C92.821541,41.928368 92.491592,42.393997 93.148964,45.704029 
	C93.050095,46.125221 92.951218,46.546417 92.095634,46.987850 
	C89.056602,47.681942 86.017563,48.376034 82.393166,49.017448 
	C81.900253,48.733391 81.407341,48.449337 80.885002,47.457184 
	C79.590958,47.300026 78.296906,47.142864 76.245140,47.017094 
	C75.495667,47.067539 74.746193,47.117989 73.213951,46.975956 
	C71.874855,47.019432 70.535751,47.062904 68.514526,47.072453 
	C68.238472,47.802223 67.578766,49.062302 67.744125,49.181938 
	C70.090401,50.879395 72.548515,52.422268 75.227356,54.178902 
	C75.227356,54.178902 75.284149,54.477699 75.123779,55.261116 
	C76.084740,57.167091 77.045700,59.073067 78.085274,61.631699 
	C78.738487,62.078686 79.391708,62.525677 80.648468,63.299183 
	C82.503525,65.132408 84.358582,66.965630 86.176353,68.894279 
	C86.176353,68.894279 86.085892,68.846199 86.210342,69.341652 
	C86.462166,69.559769 86.713989,69.777878 87.206551,70.174454 
	C87.206551,70.174454 87.168839,70.471748 87.070839,71.315346 
	C87.047737,71.876968 87.024635,72.438591 86.489067,73.228119 
	C85.992416,73.484367 85.495758,73.740623 84.708473,73.399887 
	C83.789474,72.619583 82.870483,71.839279 81.951492,71.058975 
	C81.649422,71.250916 81.347359,71.442863 81.045296,71.634804 
	C81.383759,72.781265 81.722221,73.927734 82.046791,75.711433 
	C82.037552,76.136002 82.028313,76.560562 81.998184,76.999817 
	C81.998184,76.999817 81.979538,77.017296 81.398415,77.056953 
	C80.940666,77.368835 80.482910,77.680717 79.467239,78.459488 
	C79.548653,79.527740 79.204697,81.022202 79.779602,81.595978 
	C83.915642,85.723907 82.617561,90.867752 80.997337,94.903610 
	C80.223801,96.830414 75.130630,97.023064 71.993797,97.176857 
	C72.296074,94.792610 72.598358,92.408363 72.900642,90.024117 
	C72.508804,89.960518 72.116966,89.896927 71.725136,89.833328 
	C71.147873,94.228661 70.570618,98.623985 69.166466,103.130310 
	C67.780296,103.071457 66.394135,103.012604 64.548546,102.438530 
	C63.037243,102.547676 61.525944,102.656822 59.312878,102.826637 
	C58.857166,102.723511 58.401455,102.620392 57.428326,102.141563 
	C56.576649,102.118530 55.724968,102.095497 54.417728,102.103432 
	C54.417728,102.103432 53.994255,101.932655 53.655003,101.298721 
	C49.832890,99.976875 46.084507,98.333916 42.165497,97.434097 
	C38.991081,96.705246 36.568996,100.370079 38.457458,103.259087 
	C39.739159,105.219856 42.323467,106.329140 44.837536,108.093864 
	C45.568581,108.709206 46.299629,109.324554 47.120193,110.681763 
	C47.944138,110.983803 48.768082,111.285843 49.880329,111.543739 
	C49.880329,111.543739 50.113914,111.718399 50.137150,112.488884 
	C51.102791,114.363380 52.068432,116.237869 52.554562,118.414421 
	C51.856232,118.696037 51.157902,118.977661 49.685974,119.143280 
	C46.677723,120.126923 44.764610,121.613060 47.065727,125.749275 
	C47.046944,126.499069 47.028160,127.248856 46.416664,128.280914 
	C46.061234,128.971420 45.252483,129.809891 45.421940,130.329086 
	C46.803307,134.561523 56.256668,137.312256 59.826481,134.609741 
	C60.917194,133.784012 61.982437,132.924652 63.059338,132.080704 
	C63.424084,132.279175 63.788826,132.477646 64.153572,132.676117 
	C63.786972,135.264954 63.420372,137.853775 63.013954,140.723785 
	C63.395065,140.780823 64.173698,140.897324 65.108353,141.655762 
	C65.103531,142.094864 65.098709,142.533951 64.534187,143.399734 
	C65.045479,144.582153 65.556778,145.764572 66.012650,147.005295 
	C66.012650,147.005295 66.057701,146.942123 66.037369,147.310684 
	C66.078613,147.563217 66.197777,147.771027 66.741959,148.570694 
	C66.856873,149.037994 66.971794,149.505295 66.623039,150.243698 
	C66.578568,150.640396 66.534088,151.037079 66.489616,151.433762 
	C66.976288,151.341385 67.462959,151.248993 68.376328,151.198593 
	C68.376328,151.198593 68.801834,151.145874 68.827881,151.115936 
	C68.827881,151.115936 68.831886,151.147736 68.787064,151.767563 
	C68.935745,152.372452 69.084427,152.977356 69.132759,154.238144 
	C69.481445,154.667206 69.830139,155.096252 70.178833,155.525314 
	C70.421066,154.993164 70.663300,154.461029 70.930450,153.991608 
	C70.930450,153.991608 70.926224,153.928894 71.523201,153.540298 
	C71.633507,152.616806 71.743813,151.693298 71.879539,150.023514 
	C75.185417,141.989883 78.491295,133.956253 82.417694,125.966782 
	C83.606873,125.311279 84.796051,124.655777 85.999901,124.003471 
	C85.999901,124.003471 86.007690,124.013489 86.408531,124.545296 
	C87.271645,124.698753 88.134758,124.852211 89.335266,125.639908 
	C91.905190,125.764923 94.475121,125.889938 97.183540,126.772491 
	C101.587486,129.240128 105.408707,127.827774 108.998840,124.998405 
	C108.998840,124.998405 108.989128,125.013657 109.597832,124.983467 
	C110.070763,124.653740 110.543694,124.324013 110.999092,123.998436 
M133.160965,43.490871 
	C133.578705,43.788784 133.996460,44.086697 134.414200,44.384613 
	C134.525192,43.944160 134.636200,43.503704 134.747192,43.063248 
	C134.258102,43.010349 133.769028,42.957447 133.160965,43.490871 
M73.702461,87.569763 
	C73.988785,87.296387 74.275101,87.023010 74.561424,86.749634 
	C74.448074,86.631165 74.242439,86.403442 74.234703,86.409973 
	C73.932747,86.665077 73.648819,86.941528 73.702461,87.569763 
z"/>
<path fill="#FBF5FB" opacity="1.000000" stroke="none" 
	d="
M127.024307,99.935013 
	C127.019562,100.124023 127.014816,100.313034 126.762009,100.927948 
	C126.047928,101.927582 125.581909,102.501312 124.806442,102.922989 
	C123.319321,102.188232 122.141632,101.605522 120.982475,101.011528 
	C121.000999,101.000244 120.978256,101.037292 120.943085,100.663315 
	C119.495636,99.564919 118.083366,98.840492 116.310097,98.101181 
	C111.330040,96.838409 107.119682,95.003571 104.790024,89.977463 
	C104.145058,87.702248 103.788177,85.707230 102.921684,83.965775 
	C102.337128,82.790962 101.033707,81.973839 99.967331,80.768677 
	C99.882797,80.540642 99.708122,80.086693 100.046860,79.932465 
	C101.551315,77.728310 102.717041,75.678375 103.978706,73.459724 
	C105.068748,73.320564 106.539490,73.132797 108.338928,72.994324 
	C109.858421,73.486954 111.049217,73.930305 112.250763,74.377655 
	C113.631187,72.140770 114.908768,70.070526 116.385162,67.879662 
	C116.825249,67.536247 116.956963,67.260986 117.018394,66.633232 
	C117.090607,65.934227 117.123550,65.535233 117.138954,65.069778 
	C117.121422,65.003304 117.134697,65.136902 117.383041,65.042389 
	C117.757645,64.631981 117.883911,64.316071 118.263855,63.824928 
	C119.355438,62.768955 120.193329,61.888226 121.031219,61.007492 
	C120.587944,65.582230 120.144676,70.156967 119.701408,74.731705 
	C119.247498,74.675774 118.793587,74.619850 118.339676,74.563919 
	C120.056244,78.032860 121.700241,81.540436 123.518120,84.955444 
	C124.518951,86.835564 125.812157,88.560051 126.690430,91.005539 
	C126.612976,94.415916 126.818642,97.175468 127.024307,99.935013 
M109.399139,92.283379 
	C111.214211,94.484573 113.285828,94.097923 114.794228,92.243866 
	C115.515991,91.356720 115.762970,89.024841 115.140343,88.354012 
	C114.238602,87.382469 111.648590,86.517052 111.038895,87.049461 
	C109.887024,88.055305 109.632568,90.088852 109.399139,92.283379 
z"/>
<path fill="#FBFDF9" opacity="1.000000" stroke="none" 
	d="
M71.994026,98.001190 
	C75.130630,97.023064 80.223801,96.830414 80.997337,94.903610 
	C82.617561,90.867752 83.915642,85.723907 79.779602,81.595978 
	C79.204697,81.022202 79.548653,79.527740 80.035294,78.200867 
	C81.062073,77.633934 81.520805,77.325615 81.979538,77.017296 
	C81.979538,77.017296 81.998184,76.999817 82.368195,76.945175 
	C86.838669,75.096428 90.939140,73.302330 95.363853,71.373680 
	C96.131325,71.091331 96.574547,70.943527 96.976791,70.924988 
	C96.935822,71.054237 96.961777,71.324181 97.135582,71.590431 
	C97.932068,74.646469 98.554749,77.436264 99.131844,80.597610 
	C99.031013,83.320404 98.975761,85.671631 98.595108,88.160789 
	C96.206039,88.862854 94.142387,89.426987 91.987473,89.649170 
	C90.794693,86.302063 88.531372,85.200737 86.259193,87.388435 
	C85.263817,88.346802 85.402420,91.438828 86.194176,92.950005 
	C86.693832,93.903679 89.354614,93.725067 91.047134,94.017563 
	C91.048256,93.980774 90.983665,93.945488 90.943146,94.284851 
	C89.590157,95.411301 88.277687,96.198387 86.572792,96.976303 
	C84.123871,97.983025 82.067375,98.998894 80.005432,100.007233 
	C80.000000,99.999695 80.015717,100.010384 79.789948,100.097031 
	C79.281296,100.366501 79.087891,100.618103 78.862785,101.171112 
	C78.453262,101.591942 78.164925,101.780151 77.496338,101.972702 
	C75.404701,101.660599 73.693298,101.344170 71.976746,100.648819 
	C71.979073,99.513657 71.986549,98.757423 71.994026,98.001190 
z"/>
<path fill="#F4CB21" opacity="1.000000" stroke="none" 
	d="
M149.478256,112.694595 
	C149.139114,112.765823 148.799988,112.837044 147.852051,113.016632 
	C141.478775,114.558586 135.714294,115.992157 130.848511,117.202240 
	C132.428619,125.952354 133.974670,134.513870 135.520721,143.075394 
	C135.319733,144.108871 135.118759,145.142349 134.662872,146.746613 
	C134.279327,147.878082 134.150681,148.438751 134.022049,148.999420 
	C134.022049,148.999420 133.991425,149.003677 133.762238,149.021637 
	C133.533035,149.039597 133.060471,149.029251 132.747681,148.748764 
	C132.294800,145.357193 132.306244,142.230392 131.985748,139.138000 
	C131.084091,130.437912 128.244720,122.641441 121.177017,116.685318 
	C122.494240,114.576248 123.718132,112.782043 125.413742,110.992508 
	C135.519089,111.279747 145.164246,111.695305 153.794052,106.128288 
	C155.542770,105.000198 157.464371,104.140129 159.236298,103.496323 
	C156.599716,106.446671 154.033127,109.057198 151.466537,111.667725 
	C151.466537,111.667725 151.188293,111.659920 150.784760,111.789154 
	C150.080246,112.177132 149.779251,112.435867 149.478256,112.694595 
z"/>
<path fill="#F4CB26" opacity="1.000000" stroke="none" 
	d="
M50.113914,111.718399 
	C50.113914,111.718399 49.880329,111.543739 49.556274,111.301697 
	C48.498371,110.686401 47.764523,110.313156 47.030674,109.939911 
	C46.299629,109.324554 45.568581,108.709206 44.476143,107.651596 
	C43.413029,106.135925 42.711308,105.062523 42.381824,103.986771 
	C52.238663,109.441284 62.337013,112.188759 73.609482,111.101685 
	C75.286133,113.499039 76.699722,115.709183 77.795868,118.077057 
	C75.248672,122.235153 72.831093,126.144226 70.831848,130.256668 
	C67.592651,136.919724 67.740532,144.012054 68.801834,151.145874 
	C68.801834,151.145874 68.376328,151.198593 68.123688,150.916687 
	C67.609604,150.414047 67.348160,150.193329 67.086708,149.972595 
	C66.971794,149.505295 66.856873,149.037994 66.658569,148.062195 
	C66.538536,147.235092 66.366043,147.031235 66.057701,146.942123 
	C66.057701,146.942123 66.012650,147.005295 66.080566,146.622559 
	C65.796951,145.150894 65.445419,144.061981 65.093880,142.973053 
	C65.098709,142.533951 65.103531,142.094864 65.115097,140.912140 
	C66.836212,132.357941 68.550591,124.547348 70.191040,117.073570 
	C63.701366,115.342583 56.907639,113.530487 50.113914,111.718399 
z"/>
<path fill="#F3F8E7" opacity="1.000000" stroke="none" 
	d="
M78.113304,117.919334 
	C76.699722,115.709183 75.286133,113.499039 73.550537,110.747047 
	C73.095078,109.261200 72.961624,108.317184 72.883362,106.957649 
	C72.619675,104.703995 72.300789,102.865860 71.981903,101.027740 
	C73.693298,101.344170 75.404701,101.660599 77.617386,102.346626 
	C79.676765,102.530113 81.432182,102.741249 82.756065,102.083633 
	C86.775841,100.086853 88.273033,102.291649 88.073296,105.572281 
	C87.798843,110.080177 86.676201,114.536438 85.628098,119.047020 
	C85.558853,120.039551 85.778481,120.999878 85.998566,122.300255 
	C85.994423,123.093620 85.989830,123.546951 85.985229,124.000275 
	C84.796051,124.655777 83.606873,125.311279 82.147789,125.636581 
	C85.084419,120.570427 79.526489,120.301003 78.113304,117.919334 
z"/>
<path fill="#F5CC22" opacity="1.000000" stroke="none" 
	d="
M73.996719,47.168438 
	C74.746193,47.117989 75.495667,47.067539 76.864838,47.256874 
	C78.627831,47.719528 79.771133,47.942406 80.914429,48.165283 
	C81.407341,48.449337 81.900253,48.733391 82.852852,49.325390 
	C85.166908,50.798492 87.021286,51.963654 89.040909,53.417850 
	C93.074074,57.947044 96.941994,62.187206 100.902786,66.529182 
	C105.252296,61.761040 109.669182,56.919025 114.086067,52.077015 
	C114.086067,52.077015 114.025536,51.999916 114.315292,51.996243 
	C114.840172,51.710480 115.075302,51.428387 115.310425,51.146294 
	C115.793343,50.948563 116.276253,50.750832 117.246422,50.304691 
	C118.793953,49.683914 119.854233,49.311546 121.263397,48.971863 
	C122.404297,48.657368 123.196320,48.310184 123.989700,47.976891 
	C123.991066,47.990780 123.960907,47.970726 124.327286,48.001999 
	C125.804352,48.320194 126.915031,48.607124 127.649315,48.929390 
	C116.440804,52.632763 109.625259,60.192730 105.714134,70.956360 
	C105.180130,71.099548 104.969437,71.166641 104.326630,71.223541 
	C101.583611,71.250290 99.272690,71.287231 96.961777,71.324173 
	C96.961777,71.324181 96.935822,71.054237 96.803894,70.631821 
	C92.437180,64.794823 88.509529,59.095066 83.848976,54.075840 
	C81.180374,51.201870 77.320343,49.434189 73.996719,47.168438 
z"/>
<path fill="#F2B013" opacity="1.000000" stroke="none" 
	d="
M121.083672,117.000175 
	C128.244720,122.641441 131.084091,130.437912 131.985748,139.138000 
	C132.306244,142.230392 132.294800,145.357193 132.728088,149.099716 
	C132.532211,150.506027 132.043121,151.280899 131.471130,152.093048 
	C131.388214,152.130356 131.142502,152.392181 130.842484,152.515991 
	C130.110443,152.631470 129.678436,152.623108 129.246414,152.614746 
	C129.203873,152.251373 129.161346,151.887970 129.077423,150.873383 
	C127.718086,146.475113 126.400124,142.728043 125.082169,138.980957 
	C124.933174,138.423370 124.784172,137.865784 124.432419,136.778000 
	C123.904892,135.714249 123.580124,135.180695 123.255363,134.647141 
	C123.103149,134.140717 122.950928,133.634277 122.587387,132.590073 
	C121.687950,130.895111 120.999855,129.737946 120.311752,128.580765 
	C120.311752,128.580765 120.260345,128.242157 120.145096,127.765869 
	C118.983734,125.558777 117.937614,123.827957 116.911133,121.798416 
	C116.916656,121.300613 116.902565,121.101532 117.082077,120.703621 
	C117.663681,119.901596 118.051682,119.298416 118.477036,118.672485 
	C118.514381,118.649742 118.547760,118.568909 118.828522,118.461823 
	C119.767410,117.903221 120.425545,117.451698 121.083672,117.000175 
z"/>
<path fill="#F2B013" opacity="1.000000" stroke="none" 
	d="
M77.795868,118.077057 
	C79.526489,120.301003 85.084419,120.570427 81.837524,125.614510 
	C78.491295,133.956253 75.185417,141.989883 71.649399,150.464905 
	C71.419266,150.906296 70.994865,151.074142 70.634026,151.051270 
	C69.792755,151.068176 69.312317,151.107956 68.831886,151.147736 
	C68.831886,151.147736 68.827881,151.115936 68.814857,151.130905 
	C67.740532,144.012054 67.592651,136.919724 70.831848,130.256668 
	C72.831093,126.144226 75.248672,122.235153 77.795868,118.077057 
z"/>
<path fill="#F1B015" opacity="1.000000" stroke="none" 
	d="
M159.306274,103.156494 
	C157.464371,104.140129 155.542770,105.000198 153.794052,106.128288 
	C145.164246,111.695305 135.519089,111.279747 125.441597,110.607925 
	C125.545105,105.259865 128.090347,103.272919 133.231583,103.764580 
	C136.428375,104.070274 139.740128,103.173553 143.000290,102.816498 
	C143.726791,102.776154 144.453278,102.735817 145.896393,102.641754 
	C150.064804,101.721085 153.516617,100.854126 156.968430,99.987167 
	C156.968430,99.987175 156.994431,100.007011 157.280518,100.000999 
	C157.851761,99.760223 158.136932,99.525459 158.422104,99.290695 
	C158.777069,99.233994 159.132050,99.177299 159.993469,99.102249 
	C160.664154,99.020241 160.828369,98.956596 160.992599,98.892944 
	C161.199112,99.374481 161.405609,99.856018 161.380768,100.750404 
	C160.535019,101.827667 159.920639,102.492081 159.306274,103.156494 
z"/>
<path fill="#F2B118" opacity="1.000000" stroke="none" 
	d="
M72.828171,107.373177 
	C72.961624,108.317184 73.095078,109.261200 73.287468,110.559845 
	C62.337013,112.188759 52.238663,109.441284 42.139530,103.878250 
	C41.362503,103.463791 41.200008,103.155518 40.980087,102.695572 
	C40.822224,102.347328 40.676689,102.193420 40.269318,101.811577 
	C38.523342,98.497803 40.556599,99.160484 42.205544,99.494713 
	C46.138260,100.291832 50.065063,101.118141 53.994255,101.932655 
	C53.994255,101.932655 54.417728,102.103432 54.892189,102.314713 
	C56.226345,102.523087 57.086044,102.520180 57.945744,102.517265 
	C58.401455,102.620392 58.857166,102.723511 60.061935,102.936317 
	C62.209980,103.015251 63.608974,102.984497 65.007965,102.953751 
	C66.394135,103.012604 67.780296,103.071457 69.829872,103.283081 
	C71.271576,104.748291 72.049873,106.060730 72.828171,107.373177 
z"/>
<path fill="#F2B215" opacity="1.000000" stroke="none" 
	d="
M73.605331,47.072197 
	C77.320343,49.434189 81.180374,51.201870 83.848976,54.075840 
	C88.509529,59.095066 92.437180,64.794823 96.844864,70.502563 
	C96.574547,70.943527 96.131325,71.091331 94.989639,71.280289 
	C92.231651,71.473663 90.172134,71.625877 88.038177,71.508316 
	C87.698776,70.982941 87.433807,70.727341 87.168839,70.471748 
	C87.168839,70.471748 87.206551,70.174454 87.052765,69.821075 
	C86.627953,69.260529 86.356918,69.053360 86.085892,68.846199 
	C86.085892,68.846199 86.176353,68.894279 86.143799,68.506592 
	C84.243706,65.565025 82.376167,63.011135 80.412872,60.136246 
	C78.639458,58.036060 76.961807,56.256882 75.284149,54.477699 
	C75.284149,54.477699 75.227356,54.178902 75.014519,53.770134 
	C72.933342,51.276371 71.064995,49.191376 69.196655,47.106377 
	C70.535751,47.062904 71.874855,47.019432 73.605331,47.072197 
z"/>
<path fill="#FBF7D7" opacity="1.000000" stroke="none" 
	d="
M50.125534,112.103638 
	C56.907639,113.530487 63.701366,115.342583 70.191040,117.073570 
	C68.550591,124.547348 66.836212,132.357941 65.037079,140.591187 
	C64.173698,140.897324 63.395065,140.780823 63.013954,140.723785 
	C63.420372,137.853775 63.786972,135.264954 64.153572,132.676117 
	C63.788826,132.477646 63.424084,132.279175 63.059338,132.080704 
	C61.982437,132.924652 60.917194,133.784012 59.826481,134.609741 
	C56.256668,137.312256 46.803307,134.561523 45.421940,130.329086 
	C45.252483,129.809891 46.061234,128.971420 46.984097,128.340302 
	C48.117126,129.216827 48.625446,130.081604 49.258663,130.842453 
	C51.495396,133.530075 54.593544,135.100327 57.536652,133.116730 
	C59.856373,131.553268 62.045116,128.710968 62.711143,126.042152 
	C63.623913,122.384621 60.767540,119.920433 57.438419,118.641731 
	C56.099983,118.127647 54.509716,118.269211 53.034069,118.112366 
	C52.068432,116.237869 51.102791,114.363380 50.125534,112.103638 
z"/>
<path fill="#FBF6D6" opacity="1.000000" stroke="none" 
	d="
M135.835327,142.932007 
	C133.974670,134.513870 132.428619,125.952354 130.848511,117.202240 
	C135.714294,115.992157 141.478775,114.558586 147.623413,113.144608 
	C146.330719,115.809029 147.509766,116.706932 149.922806,118.382729 
	C152.512634,120.181313 154.780792,123.473228 155.510056,126.515968 
	C155.916443,128.211594 152.905304,130.726303 151.167023,132.502441 
	C153.229721,129.212280 154.459213,126.086227 152.227814,122.587700 
	C150.239166,119.469795 147.305328,118.221367 143.665390,118.969643 
	C138.752197,119.979683 137.110336,124.291321 139.003372,131.000305 
	C136.675491,130.904312 134.977493,132.087372 136.483215,134.160934 
	C138.833542,137.397598 136.766800,139.954483 135.835327,142.932007 
z"/>
<path fill="#F5CC1F" opacity="1.000000" stroke="none" 
	d="
M105.020020,40.920437 
	C105.843910,41.805817 106.667809,42.691200 107.730423,44.177551 
	C110.141388,49.067101 108.084656,52.201614 104.807625,54.516899 
	C100.293961,57.705887 96.818542,54.881264 93.467163,51.524242 
	C93.189735,50.457863 93.000137,49.748611 92.902710,48.699219 
	C92.947365,47.895260 92.899857,47.431435 92.852348,46.967609 
	C92.951218,46.546417 93.050095,46.125221 93.446320,45.232098 
	C94.939003,43.316589 96.134331,41.873013 97.329659,40.429432 
	C97.329659,40.429432 97.324196,40.282600 97.741837,40.344337 
	C100.446327,40.577530 102.733170,40.748985 105.020020,40.920437 
z"/>
<path fill="#F5CC1F" opacity="1.000000" stroke="none" 
	d="
M52.794315,118.263397 
	C54.509716,118.269211 56.099983,118.127647 57.438419,118.641731 
	C60.767540,119.920433 63.623913,122.384621 62.711143,126.042152 
	C62.045116,128.710968 59.856373,131.553268 57.536652,133.116730 
	C54.593544,135.100327 51.495396,133.530075 49.258663,130.842453 
	C48.625446,130.081604 48.117126,129.216827 47.280449,128.199173 
	C47.028160,127.248856 47.046944,126.499069 47.276371,125.148941 
	C48.477867,122.785492 49.468719,121.022385 50.459572,119.259277 
	C51.157902,118.977661 51.856232,118.696037 52.794315,118.263397 
z"/>
<path fill="#F5CC1F" opacity="1.000000" stroke="none" 
	d="
M139.110458,131.118042 
	C137.110336,124.291321 138.752197,119.979683 143.665390,118.969643 
	C147.305328,118.221367 150.239166,119.469795 152.227814,122.587700 
	C154.459213,126.086227 153.229721,129.212280 150.792496,132.464996 
	C149.966446,133.130981 149.247681,133.464966 147.879883,133.900726 
	C144.572601,133.185562 141.914352,132.368652 139.256088,131.551727 
	C139.256088,131.551727 139.217545,131.235779 139.110458,131.118042 
z"/>
<path fill="#F5B007" opacity="1.000000" stroke="none" 
	d="
M106.037437,70.880264 
	C109.625259,60.192730 116.440804,52.632763 127.762558,49.197628 
	C128.493652,49.955345 128.735107,50.480164 128.826050,51.270012 
	C128.094345,52.349854 127.513138,53.164669 126.931946,53.979485 
	C126.309692,54.482628 125.687431,54.985767 124.491104,55.695648 
	C123.397194,56.704227 122.877350,57.506062 122.357498,58.307899 
	C122.357506,58.307899 122.380234,58.150295 122.028397,58.249084 
	C121.458344,58.915356 121.240128,59.482834 121.021904,60.050312 
	C121.021904,60.050312 120.976494,60.529377 121.003860,60.768433 
	C120.193329,61.888226 119.355438,62.768955 118.010330,63.913208 
	C117.380310,64.496788 117.257507,64.816841 117.134697,65.136902 
	C117.134697,65.136902 117.121422,65.003304 116.783531,65.070656 
	C115.371796,66.543297 114.508644,68.212097 113.168159,69.283920 
	C111.657898,70.491508 109.717674,71.161362 107.975159,72.038254 
	C107.985855,72.011391 107.940178,72.046921 107.806587,71.781921 
	C107.127808,71.304710 106.582626,71.092491 106.037437,70.880264 
z"/>
<path fill="#FCF7DA" opacity="1.000000" stroke="none" 
	d="
M93.555008,51.881367 
	C96.818542,54.881264 100.293961,57.705887 104.807625,54.516899 
	C108.084656,52.201614 110.141388,49.067101 107.931717,44.403786 
	C108.598846,45.401691 109.178787,46.859333 110.041512,48.124073 
	C110.983902,49.505592 112.188011,50.708580 113.682053,52.033203 
	C109.669182,56.919025 105.252296,61.761040 100.902786,66.529182 
	C96.941994,62.187206 93.074074,57.947044 89.124100,53.332901 
	C89.042038,52.958920 89.208702,52.790073 89.576103,52.851913 
	C91.147339,52.569622 92.351173,52.225494 93.555008,51.881367 
z"/>
<path fill="#FAFCFC" opacity="1.000000" stroke="none" 
	d="
M85.992569,124.001877 
	C85.989830,123.546951 85.994423,123.093620 86.351929,122.272873 
	C89.212112,120.208359 92.992165,123.919235 95.311195,119.967621 
	C96.440536,119.376503 97.225937,118.778648 98.285660,118.069504 
	C99.368225,118.022751 100.176476,118.087296 101.094078,118.524544 
	C103.001816,119.267868 104.871078,119.441833 106.580902,120.058167 
	C108.790764,120.854744 110.873260,122.004692 112.710403,123.024765 
	C111.936317,123.369064 111.462440,123.691078 110.988556,124.013092 
	C110.988556,124.013092 110.999092,123.998436 110.705330,124.018524 
	C109.937416,124.363625 109.463272,124.688637 108.989128,125.013657 
	C108.989128,125.013657 108.998840,124.998405 108.588631,125.007889 
	C104.467293,125.349899 100.756172,125.682426 97.045044,126.014954 
	C94.475121,125.889938 91.905190,125.764923 88.964523,125.057327 
	C87.731743,124.320992 86.869720,124.167244 86.007690,124.013489 
	C86.007690,124.013489 85.999901,124.003471 85.992569,124.001877 
z"/>
<path fill="#FBEEC9" opacity="1.000000" stroke="none" 
	d="
M142.678436,102.562195 
	C139.740128,103.173553 136.428375,104.070274 133.231583,103.764580 
	C128.090347,103.272919 125.545105,105.259865 124.969864,110.603241 
	C123.718132,112.782043 122.494240,114.576248 121.177017,116.685318 
	C120.425545,117.451698 119.767410,117.903221 118.716705,118.089020 
	C120.238159,113.861534 122.152176,109.899765 124.294182,105.772545 
	C124.675194,105.074234 124.828217,104.541389 125.014511,103.775101 
	C125.047783,103.541672 125.115883,103.075035 125.115883,103.075035 
	C125.581909,102.501312 126.047928,101.927582 126.753342,101.211418 
	C132.114014,101.481949 137.235306,101.894920 142.678436,102.562195 
z"/>
<path fill="#FBF7D7" opacity="1.000000" stroke="none" 
	d="
M53.824631,101.615692 
	C50.065063,101.118141 46.138260,100.291832 42.205544,99.494713 
	C40.556599,99.160484 38.523342,98.497803 40.226555,102.002563 
	C40.521763,102.742867 40.734089,102.870560 41.037514,102.847244 
	C41.200008,103.155518 41.362503,103.463791 41.767292,103.880585 
	C42.711308,105.062523 43.413029,106.135925 44.219986,107.514282 
	C42.323467,106.329140 39.739159,105.219856 38.457458,103.259087 
	C36.568996,100.370079 38.991081,96.705246 42.165497,97.434097 
	C46.084507,98.333916 49.832890,99.976875 53.824631,101.615692 
z"/>
<path fill="#FBF6D6" opacity="1.000000" stroke="none" 
	d="
M159.236298,103.496315 
	C159.920639,102.492081 160.535019,101.827667 161.387573,101.025040 
	C161.719223,102.097244 162.361969,103.935043 161.814987,104.413933 
	C158.782181,107.069191 155.460052,109.394005 151.851776,111.749855 
	C154.033127,109.057198 156.599716,106.446671 159.236298,103.496315 
z"/>
<path fill="#FCF7DA" opacity="1.000000" stroke="none" 
	d="
M92.473991,46.977730 
	C92.899857,47.431435 92.947365,47.895260 92.544319,48.696423 
	C91.132080,50.285866 90.170387,51.537968 89.208702,52.790073 
	C89.208702,52.790073 89.042038,52.958920 88.958847,53.043869 
	C87.021286,51.963654 85.166908,50.798492 83.145538,49.351730 
	C86.017563,48.376034 89.056602,47.681942 92.473991,46.977730 
z"/>
<path fill="#FBEEC9" opacity="1.000000" stroke="none" 
	d="
M124.810509,139.206329 
	C126.400124,142.728043 127.718086,146.475113 128.979630,150.615967 
	C123.926216,148.489227 125.348984,143.537674 124.810509,139.206329 
z"/>
<path fill="#F5EDD5" opacity="1.000000" stroke="none" 
	d="
M72.883362,106.957649 
	C72.049873,106.060730 71.271576,104.748291 70.243317,103.227577 
	C70.570618,98.623985 71.147873,94.228661 71.725136,89.833328 
	C72.116966,89.896927 72.508804,89.960518 72.900642,90.024117 
	C72.598358,92.408363 72.296074,94.792610 71.993912,97.589020 
	C71.986549,98.757423 71.979073,99.513657 71.976746,100.648811 
	C72.300789,102.865860 72.619675,104.703995 72.883362,106.957649 
z"/>
<path fill="#FCF7DA" opacity="1.000000" stroke="none" 
	d="
M68.855591,47.089417 
	C71.064995,49.191376 72.933342,51.276371 74.890633,53.681942 
	C72.548515,52.422268 70.090401,50.879395 67.744125,49.181938 
	C67.578766,49.062302 68.238472,47.802223 68.855591,47.089417 
z"/>
<path fill="#FCF7DA" opacity="1.000000" stroke="none" 
	d="
M127.309860,53.993683 
	C127.513138,53.164669 128.094345,52.349854 129.130737,51.168560 
	C130.694763,49.554161 131.803604,48.306240 132.912430,47.058315 
	C133.394592,47.762016 134.340149,49.047649 134.292313,49.085751 
	C132.145523,50.795197 129.911499,52.395061 127.309860,53.993683 
z"/>
<path fill="#EBE7D9" opacity="1.000000" stroke="none" 
	d="
M88.112617,71.778091 
	C90.172134,71.625877 92.231651,71.473663 94.665390,71.414841 
	C90.939140,73.302330 86.838669,75.096428 82.378639,76.937828 
	C82.028313,76.560562 82.037552,76.136002 82.365662,75.350815 
	C83.456062,74.659096 84.227577,74.327988 84.999100,73.996872 
	C85.495758,73.740623 85.992416,73.484367 86.991287,72.974937 
	C87.699875,72.407204 87.906250,72.092644 88.112617,71.778091 
z"/>
<path fill="#E4E1E7" opacity="1.000000" stroke="none" 
	d="
M97.114288,126.393723 
	C100.756172,125.682426 104.467293,125.349899 108.597534,125.006340 
	C105.408707,127.827774 101.587486,129.240128 97.114288,126.393723 
z"/>
<path fill="#FBF6D6" opacity="1.000000" stroke="none" 
	d="
M139.199112,131.928665 
	C141.914352,132.368652 144.572601,133.185562 147.630920,134.068771 
	C144.896515,136.886963 141.219452,136.130173 139.199112,131.928665 
z"/>
<path fill="#FCF7DA" opacity="1.000000" stroke="none" 
	d="
M75.203964,54.869408 
	C76.961807,56.256882 78.639458,58.036060 80.277542,60.273987 
	C80.237976,60.732731 79.979942,61.020069 79.651276,61.007416 
	C78.883965,60.989521 78.445312,60.984280 78.006668,60.979042 
	C77.045700,59.073067 76.084740,57.167091 75.203964,54.869408 
z"/>
<path fill="#FCF7DA" opacity="1.000000" stroke="none" 
	d="
M105.004730,40.522202 
	C102.733170,40.748985 100.446327,40.577530 97.782471,40.405548 
	C98.966179,37.136101 102.426567,37.007862 105.004730,40.522202 
z"/>
<path fill="#FBEEC9" opacity="1.000000" stroke="none" 
	d="
M156.516693,99.953232 
	C153.516617,100.854126 150.064804,101.721085 146.234009,102.500763 
	C147.324417,101.627243 148.716187,100.500961 150.283386,100.143135 
	C152.131287,99.721222 154.131042,99.964455 156.516693,99.953232 
z"/>
<path fill="#E7C150" opacity="1.000000" stroke="none" 
	d="
M132.678238,46.987804 
	C131.803604,48.306240 130.694763,49.554161 129.281250,50.903534 
	C128.735107,50.480164 128.493652,49.955345 128.138947,49.162289 
	C126.915031,48.607124 125.804352,48.320194 124.328156,47.758148 
	C123.962646,47.483028 124.004822,46.996815 124.004822,46.996811 
	C126.049583,46.909962 128.094345,46.823112 130.815125,46.769966 
	C131.659760,46.775387 131.828369,46.747097 131.996964,46.718811 
	C131.996964,46.718811 132.444046,46.917294 132.678238,46.987804 
z"/>
<path fill="#FCF7DA" opacity="1.000000" stroke="none" 
	d="
M80.373306,60.594990 
	C82.376167,63.011135 84.243706,65.565025 86.162437,68.458885 
	C84.358582,66.965630 82.503525,65.132408 80.335938,62.810684 
	C80.008926,61.888145 79.994438,61.454109 79.979950,61.020069 
	C79.979942,61.020069 80.237976,60.732731 80.373306,60.594990 
z"/>
<path fill="#FBF7D7" opacity="1.000000" stroke="none" 
	d="
M50.072769,119.201279 
	C49.468719,121.022385 48.477867,122.785492 47.242439,124.775169 
	C44.764610,121.613060 46.677723,120.126923 50.072769,119.201279 
z"/>
<path fill="#FCF7DA" opacity="1.000000" stroke="none" 
	d="
M123.787895,46.733913 
	C124.004822,46.996815 123.962646,47.483028 123.961777,47.726875 
	C123.960907,47.970726 123.991066,47.990780 123.648865,47.947334 
	C122.509285,48.248989 121.711899,48.594086 120.914513,48.939178 
	C119.854233,49.311546 118.793953,49.683914 117.395264,50.085377 
	C119.228218,48.899986 121.399590,47.685501 123.787895,46.733913 
z"/>
<path fill="#FBEEC9" opacity="1.000000" stroke="none" 
	d="
M127.293228,99.682983 
	C126.818642,97.175468 126.612976,94.415916 126.675362,91.401726 
	C127.149658,93.908371 127.355904,96.669670 127.293228,99.682983 
z"/>
<path fill="#FBEEC9" opacity="1.000000" stroke="none" 
	d="
M116.891502,122.097137 
	C117.937614,123.827957 118.983734,125.558777 120.039093,127.631378 
	C118.718727,126.538773 117.389122,125.104362 116.132416,123.114807 
	C116.363998,122.301613 116.592728,122.147438 116.891502,122.097137 
z"/>
<path fill="#FCF7DA" opacity="1.000000" stroke="none" 
	d="
M96.975845,40.314445 
	C96.134331,41.873013 94.939003,43.316589 93.462631,44.907417 
	C92.491592,42.393997 92.821541,41.928368 96.975845,40.314445 
z"/>
<path fill="#FBFDF9" opacity="1.000000" stroke="none" 
	d="
M84.853790,73.698380 
	C84.227577,74.327988 83.456062,74.659096 82.372604,75.032196 
	C81.722221,73.927734 81.383759,72.781265 81.045296,71.634804 
	C81.347359,71.442863 81.649422,71.250916 81.951492,71.058975 
	C82.870483,71.839279 83.789474,72.619583 84.853790,73.698380 
z"/>
<path fill="#FBF6D6" opacity="1.000000" stroke="none" 
	d="
M131.554031,152.055756 
	C132.043121,151.280899 132.532211,150.506027 133.040894,149.380203 
	C133.060471,149.029251 133.533035,149.039597 133.769318,149.035431 
	C133.592957,150.646835 133.180313,152.262421 132.361801,153.636597 
	C131.918716,153.172760 131.881516,152.950348 131.797180,152.548889 
	C131.750061,152.369873 131.554031,152.055756 131.554031,152.055756 
z"/>
<path fill="#FBF7D7" opacity="1.000000" stroke="none" 
	d="
M64.814034,143.186401 
	C65.445419,144.061981 65.796951,145.150894 66.108276,146.593414 
	C65.556778,145.764572 65.045479,144.582153 64.814034,143.186401 
z"/>
<path fill="#FCF7DA" opacity="1.000000" stroke="none" 
	d="
M80.899719,47.811234 
	C79.771133,47.942406 78.627831,47.719528 77.243698,47.241180 
	C78.296906,47.142864 79.590958,47.300026 80.899719,47.811234 
z"/>
<path fill="#FBEEC9" opacity="1.000000" stroke="none" 
	d="
M131.844315,152.727921 
	C131.881516,152.950348 131.918716,153.172760 132.001068,153.731110 
	C131.290436,154.546204 130.534637,155.025375 129.778854,155.504547 
	C129.544510,154.778259 129.310165,154.051956 129.161118,152.970215 
	C129.678436,152.623108 130.110443,152.631470 130.987411,152.665115 
	C131.432358,152.690414 131.844315,152.727921 131.844315,152.727921 
z"/>
<path fill="#FBEEC9" opacity="1.000000" stroke="none" 
	d="
M120.228333,129.001404 
	C120.999855,129.737946 121.687950,130.895111 122.407005,132.393082 
	C121.673615,131.629929 120.909264,130.526001 120.228333,129.001404 
z"/>
<path fill="#FCF7DA" opacity="1.000000" stroke="none" 
	d="
M133.220459,43.197708 
	C133.769028,42.957447 134.258102,43.010349 134.747192,43.063248 
	C134.636200,43.503704 134.525192,43.944160 134.414200,44.384613 
	C133.996460,44.086697 133.578705,43.788784 133.220459,43.197708 
z"/>
<path fill="#F4CB26" opacity="1.000000" stroke="none" 
	d="
M68.809479,151.457642 
	C69.312317,151.107956 69.792755,151.068176 70.659142,151.407623 
	C71.005470,152.500854 70.965851,153.214874 70.926224,153.928894 
	C70.926224,153.928894 70.930450,153.991608 70.637741,153.911377 
	C69.974388,153.748184 69.603752,153.665222 69.233109,153.582245 
	C69.084427,152.977356 68.935745,152.372452 68.809479,151.457642 
z"/>
<path fill="#E7C150" opacity="1.000000" stroke="none" 
	d="
M122.598694,58.283478 
	C122.877350,57.506062 123.397194,56.704227 124.254349,55.880829 
	C124.591667,55.859261 124.800751,56.250961 124.577896,56.605667 
	C124.145546,57.261654 123.936050,57.562931 123.726547,57.864212 
	C123.418175,57.967037 123.122620,58.098652 122.598694,58.283478 
z"/>
<path fill="#E4E1E7" opacity="1.000000" stroke="none" 
	d="
M116.911133,121.798416 
	C116.592728,122.147438 116.363998,122.301613 116.119339,122.752945 
	C115.580650,122.963226 115.127937,122.980225 114.337593,122.998566 
	C113.999954,122.999916 113.999222,122.998940 114.127304,122.690010 
	C114.541756,121.534164 114.828125,120.687248 115.329620,119.862732 
	C115.544746,119.885132 115.974411,119.935318 116.067238,120.149727 
	C116.319420,120.656555 116.562225,120.835999 116.888481,120.902458 
	C116.902565,121.101532 116.916656,121.300613 116.911133,121.798416 
z"/>
<path fill="#F5EDD5" opacity="1.000000" stroke="none" 
	d="
M64.778259,102.696136 
	C63.608974,102.984497 62.209980,103.015251 60.412815,102.905983 
	C61.525944,102.656822 63.037243,102.547676 64.778259,102.696136 
z"/>
<path fill="#FBF7D7" opacity="1.000000" stroke="none" 
	d="
M66.854874,150.108154 
	C67.348160,150.193329 67.609604,150.414047 67.910339,150.895691 
	C67.462959,151.248993 66.976288,151.341385 66.489616,151.433777 
	C66.534088,151.037079 66.578568,150.640396 66.854874,150.108154 
z"/>
<path fill="#FBF7D7" opacity="1.000000" stroke="none" 
	d="
M69.182938,153.910187 
	C69.603752,153.665222 69.974388,153.748184 70.625290,153.880020 
	C70.663300,154.461029 70.421066,154.993164 70.178833,155.525314 
	C69.830139,155.096252 69.481445,154.667206 69.182938,153.910187 
z"/>
<path fill="#FBF6D6" opacity="1.000000" stroke="none" 
	d="
M134.319244,148.975143 
	C134.150681,148.438751 134.279327,147.878082 134.648254,147.142609 
	C134.797836,147.628830 134.707123,148.289841 134.319244,148.975143 
z"/>
<path fill="#FBFDF9" opacity="1.000000" stroke="none" 
	d="
M73.532501,87.392471 
	C73.648819,86.941528 73.932747,86.665077 74.234703,86.409973 
	C74.242439,86.403442 74.448074,86.631165 74.561424,86.749634 
	C74.275101,87.023010 73.988785,87.296387 73.532501,87.392471 
z"/>
<path fill="#FBFDF9" opacity="1.000000" stroke="none" 
	d="
M79.651276,61.007416 
	C79.994438,61.454109 80.008926,61.888145 80.034164,62.647423 
	C79.391708,62.525677 78.738487,62.078686 78.045975,61.305370 
	C78.445312,60.984280 78.883965,60.989521 79.651276,61.007416 
z"/>
<path fill="#FBF7D7" opacity="1.000000" stroke="none" 
	d="
M47.075432,110.310837 
	C47.764523,110.313156 48.498371,110.686401 49.412125,111.323761 
	C48.768082,111.285843 47.944138,110.983803 47.075432,110.310837 
z"/>
<path fill="#E4E1E7" opacity="1.000000" stroke="none" 
	d="
M111.328323,124.011856 
	C111.462440,123.691078 111.936317,123.369064 112.957497,123.025734 
	C113.504791,123.004417 113.999222,122.998940 113.999222,122.998940 
	C113.999222,122.998940 113.999954,122.999916 113.998207,122.997223 
	C113.220337,123.333229 112.444206,123.671921 111.328323,124.011856 
z"/>
<path fill="#F5EDD5" opacity="1.000000" stroke="none" 
	d="
M57.687035,102.329414 
	C57.086044,102.520180 56.226345,102.523087 55.119968,102.299232 
	C55.724968,102.095497 56.576649,102.118530 57.687035,102.329414 
z"/>
<path fill="#F3F8E7" opacity="1.000000" stroke="none" 
	d="
M86.208115,124.279396 
	C86.869720,124.167244 87.731743,124.320992 88.795822,124.740204 
	C88.134758,124.852211 87.271645,124.698753 86.208115,124.279396 
z"/>
<path fill="#FBF7D7" opacity="1.000000" stroke="none" 
	d="
M71.224716,153.734589 
	C70.965851,153.214874 71.005470,152.500854 71.019981,151.430481 
	C70.994865,151.074142 71.419266,150.906296 71.636688,150.838043 
	C71.743813,151.693298 71.633507,152.616806 71.224716,153.734589 
z"/>
<path fill="#E4E1E7" opacity="1.000000" stroke="none" 
	d="
M109.293480,124.998558 
	C109.463272,124.688637 109.937416,124.363625 110.714096,124.016449 
	C110.543694,124.324013 110.070763,124.653740 109.293480,124.998558 
z"/>
<path fill="#E7C150" opacity="1.000000" stroke="none" 
	d="
M121.294426,59.937981 
	C121.240128,59.482834 121.458344,58.915356 122.002289,58.323502 
	C122.074326,58.807964 121.820633,59.316811 121.294426,59.937981 
z"/>
<path fill="#FBEEC9" opacity="1.000000" stroke="none" 
	d="
M123.186340,134.991638 
	C123.580124,135.180695 123.904892,135.714249 124.228607,136.569855 
	C123.857475,136.373306 123.487404,135.854721 123.186340,134.991638 
z"/>
<path fill="#EBE7D9" opacity="1.000000" stroke="none" 
	d="
M81.688980,77.037125 
	C81.520805,77.325615 81.062073,77.633934 80.314255,77.967422 
	C80.482910,77.680717 80.940666,77.368835 81.688980,77.037125 
z"/>
<path fill="#FBFDF9" opacity="1.000000" stroke="none" 
	d="
M88.038177,71.508316 
	C87.906250,72.092644 87.699875,72.407204 87.247520,72.860985 
	C87.024635,72.438591 87.047737,71.876968 87.119843,70.893547 
	C87.433807,70.727341 87.698776,70.982941 88.038177,71.508316 
z"/>
<path fill="#FBEEC9" opacity="1.000000" stroke="none" 
	d="
M158.130188,99.256638 
	C158.136932,99.525459 157.851761,99.760223 157.282883,99.984863 
	C157.278885,99.724022 157.558594,99.473305 158.130188,99.256638 
z"/>
<path fill="#FBF6D6" opacity="1.000000" stroke="none" 
	d="
M160.909698,98.723320 
	C160.828369,98.956596 160.664154,99.020241 160.247040,99.007301 
	C160.271698,98.805038 160.549255,98.679367 160.909698,98.723320 
z"/>
<path fill="#FBF7D7" opacity="1.000000" stroke="none" 
	d="
M66.047531,147.126404 
	C66.366043,147.031235 66.538536,147.235092 66.485016,147.743927 
	C66.197777,147.771027 66.078613,147.563217 66.047531,147.126404 
z"/>
<path fill="#FBFDF9" opacity="1.000000" stroke="none" 
	d="
M86.148117,69.093925 
	C86.356918,69.053360 86.627953,69.260529 86.932396,69.731842 
	C86.713989,69.777878 86.462166,69.559769 86.148117,69.093925 
z"/>
<path fill="#FCF7DA" opacity="1.000000" stroke="none" 
	d="
M124.017532,57.789742 
	C123.936050,57.562931 124.145546,57.261654 124.600571,56.826515 
	C124.666901,57.033527 124.487709,57.374401 124.017532,57.789742 
z"/>
<path fill="#FCF7DA" opacity="1.000000" stroke="none" 
	d="
M131.907883,46.586227 
	C131.828369,46.747097 131.659760,46.775387 131.249664,46.717339 
	C131.234497,46.321991 131.504700,46.262871 131.907883,46.586227 
z"/>
<path fill="#FBF6D6" opacity="1.000000" stroke="none" 
	d="
M149.798935,112.709785 
	C149.779251,112.435867 150.080246,112.177132 150.682632,111.883698 
	C150.695892,112.140991 150.407745,112.432976 149.798935,112.709785 
z"/>
<path fill="#FCF7DA" opacity="1.000000" stroke="none" 
	d="
M115.021774,51.177280 
	C115.075302,51.428387 114.840172,51.710480 114.328674,52.043377 
	C114.279243,51.798878 114.506180,51.503571 115.021774,51.177280 
z"/>
<path fill="#8E20AA" opacity="1.000000" stroke="none" 
	d="
M104.861176,90.365616 
	C107.119682,95.003571 111.330040,96.838409 116.525787,98.362465 
	C118.394402,99.438187 119.686325,100.237740 120.978256,101.037292 
	C120.978256,101.037292 121.000999,101.000244 121.117981,101.334953 
	C121.357437,101.943993 121.510918,102.210083 121.587067,102.496719 
	C121.617439,102.611061 121.454102,102.898224 121.417549,102.891670 
	C118.937080,102.446442 116.460548,101.979263 113.690788,101.458939 
	C111.104744,107.132042 111.593300,112.626541 114.258125,118.427872 
	C113.411926,118.935875 112.259804,119.494308 111.906761,119.173454 
	C110.522377,117.915314 109.390053,116.379829 108.082428,114.631134 
	C107.614723,113.534767 107.228691,112.754639 106.879333,111.652527 
	C106.797394,110.918549 106.678772,110.506546 106.619461,109.671173 
	C106.610397,108.114342 106.542007,106.980896 106.591309,105.451202 
	C106.524567,102.907394 106.340134,100.759827 106.093521,98.288200 
	C104.627083,95.963554 103.222824,93.962967 101.869873,91.587799 
	C102.901184,90.930687 103.881180,90.648155 104.861176,90.365616 
z"/>
<path fill="#FCF2FC" opacity="1.000000" stroke="none" 
	d="
M114.319344,118.074295 
	C111.593300,112.626541 111.104744,107.132042 113.690788,101.458939 
	C116.460548,101.979263 118.937080,102.446442 121.417549,102.891670 
	C121.454102,102.898224 121.617439,102.611061 121.587067,102.496719 
	C121.510918,102.210083 121.357437,101.943993 121.099457,101.346237 
	C122.141632,101.605522 123.319321,102.188232 124.806442,102.922989 
	C125.115883,103.075035 125.047783,103.541672 124.755531,103.790024 
	C124.330917,104.671585 124.198555,105.304794 124.066193,105.938004 
	C122.152176,109.899765 120.238159,113.861534 118.435951,118.196106 
	C118.547760,118.568909 118.514381,118.649742 118.157806,118.489471 
	C117.192284,118.864578 116.583344,119.399948 115.974411,119.935318 
	C115.974411,119.935318 115.544746,119.885132 115.284332,119.617332 
	C114.789055,118.924454 114.554199,118.499374 114.319344,118.074295 
z"/>
<path fill="#EBE7D9" opacity="1.000000" stroke="none" 
	d="
M97.135582,71.590424 
	C99.272690,71.287231 101.583611,71.250290 104.590858,71.436905 
	C106.171524,71.789284 107.055847,71.918098 107.940178,72.046921 
	C107.940178,72.046921 107.985855,72.011391 107.975662,72.258636 
	C107.965462,72.505882 108.010239,72.945038 108.010239,72.945038 
	C106.539490,73.132797 105.068748,73.320564 103.978706,73.459724 
	C102.717041,75.678375 101.551315,77.728310 99.916443,79.974045 
	C99.447289,80.169861 99.177429,80.226051 99.177429,80.226051 
	C98.554749,77.436264 97.932068,74.646469 97.135582,71.590424 
z"/>
<path fill="#8E20AA" opacity="1.000000" stroke="none" 
	d="
M109.202156,91.989349 
	C109.632568,90.088852 109.887024,88.055305 111.038895,87.049461 
	C111.648590,86.517052 114.238602,87.382469 115.140343,88.354012 
	C115.762970,89.024841 115.515991,91.356720 114.794228,92.243866 
	C113.285828,94.097923 111.214211,94.484573 109.202156,91.989349 
z"/>
<path fill="#EBE9FA" opacity="1.000000" stroke="none" 
	d="
M104.790024,89.977470 
	C103.881180,90.648155 102.901184,90.930687 101.645416,91.364616 
	C100.965431,90.389946 100.561211,89.263870 100.102448,88.082367 
	C100.047905,88.026924 99.918198,87.941071 99.940964,87.506874 
	C99.993103,85.047356 100.022484,83.022026 100.051857,80.996704 
	C101.033707,81.973839 102.337128,82.790962 102.921684,83.965775 
	C103.788177,85.707230 104.145058,87.702248 104.790024,89.977470 
z"/>
<path fill="#E7C150" opacity="1.000000" stroke="none" 
	d="
M108.338928,72.994324 
	C108.010239,72.945038 107.965462,72.505882 107.964966,72.285492 
	C109.717674,71.161362 111.657898,70.491508 113.168159,69.283920 
	C114.508644,68.212097 115.371796,66.543297 116.801064,65.137131 
	C117.123550,65.535233 117.090607,65.934227 116.806992,66.743668 
	C116.294922,67.375832 116.171600,67.657883 116.186348,68.000290 
	C114.908768,70.070526 113.631187,72.140770 112.250763,74.377655 
	C111.049217,73.930305 109.858421,73.486954 108.338928,72.994324 
z"/>
<path fill="#9CAB8D" opacity="1.000000" stroke="none" 
	d="
M99.967331,80.768677 
	C100.022484,83.022026 99.993103,85.047356 99.693192,87.546234 
	C99.255272,88.020813 99.087898,88.021835 98.920517,88.022865 
	C98.975761,85.671631 99.031013,83.320404 99.131844,80.597610 
	C99.177429,80.226051 99.447289,80.169861 99.577705,80.128281 
	C99.708122,80.086693 99.882797,80.540642 99.967331,80.768677 
z"/>
<path fill="#FCF2FC" opacity="1.000000" stroke="none" 
	d="
M120.943085,100.663315 
	C119.686325,100.237740 118.394402,99.438187 116.886780,98.377350 
	C118.083366,98.840492 119.495636,99.564919 120.943085,100.663315 
z"/>
<path fill="#FCF7DA" opacity="1.000000" stroke="none" 
	d="
M116.385162,67.879662 
	C116.171600,67.657883 116.294922,67.375832 116.767715,67.043686 
	C116.956963,67.260986 116.825249,67.536247 116.385162,67.879662 
z"/>
<path fill="#E7C150" opacity="1.000000" stroke="none" 
	d="
M117.383041,65.042389 
	C117.257507,64.816841 117.380310,64.496788 117.756638,64.088448 
	C117.883911,64.316071 117.757645,64.631981 117.383041,65.042389 
z"/>
<path fill="#528722" opacity="1.000000" stroke="none" 
	d="
M85.916985,119.014824 
	C86.676201,114.536438 87.798843,110.080177 88.073296,105.572281 
	C88.273033,102.291649 86.775841,100.086853 82.756065,102.083633 
	C81.432182,102.741249 79.676765,102.530113 77.997627,102.342285 
	C78.164925,101.780151 78.453262,101.591942 79.114731,101.127090 
	C79.663818,100.570435 79.839767,100.290405 80.015717,100.010384 
	C80.015717,100.010384 80.000000,99.999695 80.373032,99.981949 
	C82.819107,98.971283 84.892159,97.978378 86.965210,96.985466 
	C88.277687,96.198387 89.590157,95.411301 91.330368,94.358704 
	C92.811417,93.904640 93.864731,93.716087 94.610588,93.582573 
	C94.328613,99.356972 94.557808,105.153831 93.597046,110.746262 
	C92.927383,114.644333 91.357109,118.958946 85.916985,119.014824 
z"/>
<path fill="#DFEFDF" opacity="1.000000" stroke="none" 
	d="
M85.628098,119.047020 
	C91.357109,118.958946 92.927383,114.644333 93.597046,110.746262 
	C94.557808,105.153831 94.328613,99.356972 94.610588,93.582573 
	C93.864731,93.716087 92.811417,93.904640 91.370888,94.019341 
	C90.983665,93.945488 91.048256,93.980774 90.955162,93.664383 
	C91.267624,92.229027 91.673180,91.110077 92.078728,89.991119 
	C94.142387,89.426987 96.206039,88.862854 98.595108,88.160789 
	C99.087898,88.021835 99.255272,88.020813 99.670425,87.980431 
	C99.918198,87.941071 100.047905,88.026924 100.055099,88.481140 
	C99.390366,91.250175 98.631546,93.544258 98.072723,95.886078 
	C97.585663,97.927177 97.324203,100.022125 96.960365,102.457863 
	C96.442139,104.132408 95.707809,105.401344 95.452972,106.760193 
	C94.747330,110.522896 94.241600,114.323074 93.570137,118.669823 
	C93.381554,118.495560 94.174408,119.228218 94.967262,119.960884 
	C92.992165,123.919235 89.212112,120.208359 86.351471,121.932831 
	C85.778481,120.999878 85.558853,120.039551 85.628098,119.047020 
z"/>
<path fill="#528722" opacity="1.000000" stroke="none" 
	d="
M91.987473,89.649170 
	C91.673180,91.110077 91.267624,92.229027 90.954041,93.701172 
	C89.354614,93.725067 86.693832,93.903679 86.194176,92.950005 
	C85.402420,91.438828 85.263817,88.346802 86.259193,87.388435 
	C88.531372,85.200737 90.794693,86.302063 91.987473,89.649170 
z"/>
<path fill="#F3F8E7" opacity="1.000000" stroke="none" 
	d="
M86.572792,96.976303 
	C84.892159,97.978378 82.819107,98.971283 80.378464,99.989487 
	C82.067375,98.998894 84.123871,97.983025 86.572792,96.976303 
z"/>
<path fill="#F3F8E7" opacity="1.000000" stroke="none" 
	d="
M79.789948,100.097031 
	C79.839767,100.290405 79.663818,100.570435 79.235916,100.894478 
	C79.087891,100.618103 79.281296,100.366501 79.789948,100.097031 
z"/>
<path fill="#E7C150" opacity="1.000000" stroke="none" 
	d="
M107.806587,71.781921 
	C107.055847,71.918098 106.171524,71.789284 105.022964,71.447105 
	C104.969437,71.166641 105.180130,71.099548 105.714134,70.956360 
	C106.582626,71.092491 107.127808,71.304710 107.806587,71.781921 
z"/>
<path fill="#E7C150" opacity="1.000000" stroke="none" 
	d="
M121.263397,48.971867 
	C121.711899,48.594086 122.509285,48.248989 123.647507,47.933445 
	C123.196320,48.310184 122.404297,48.657368 121.263397,48.971867 
z"/>
<path fill="#FBEEC9" opacity="1.000000" stroke="none" 
	d="
M116.067238,120.149727 
	C116.583344,119.399948 117.192284,118.864578 118.120453,118.512222 
	C118.051682,119.298416 117.663681,119.901596 117.082077,120.703621 
	C116.562225,120.835999 116.319420,120.656555 116.067238,120.149727 
z"/>
<path fill="#F4CB21" opacity="1.000000" stroke="none" 
	d="
M131.797180,152.548889 
	C131.844315,152.727921 131.432358,152.690414 131.287430,152.541290 
	C131.142502,152.392181 131.388214,152.130356 131.471130,152.093048 
	C131.554031,152.055756 131.750061,152.369873 131.797180,152.548889 
z"/>
<path fill="#F4CB26" opacity="1.000000" stroke="none" 
	d="
M40.980087,102.695572 
	C40.734089,102.870560 40.521763,102.742867 40.443291,102.273163 
	C40.676689,102.193420 40.822224,102.347328 40.980087,102.695572 
z"/>
<path fill="#FFFFFF" opacity="1.000000" stroke="none" 
	d="
M89.576103,52.851913 
	C90.170387,51.537968 91.132080,50.285866 92.452156,49.036560 
	C93.000137,49.748611 93.189735,50.457863 93.467163,51.524242 
	C92.351173,52.225494 91.147339,52.569622 89.576103,52.851913 
z"/>
<path fill="#EBE9FA" opacity="1.000000" stroke="none" 
	d="
M95.311195,119.967621 
	C94.174408,119.228218 93.381554,118.495560 93.570137,118.669823 
	C94.241600,114.323074 94.747330,110.522896 95.452972,106.760193 
	C95.707809,105.401344 96.442139,104.132408 97.119019,102.135742 
	C98.464127,100.563622 99.647873,99.678192 102.135002,97.817856 
	C102.891968,102.992401 103.687119,106.725845 103.909782,110.493118 
	C104.085281,113.462357 104.784416,115.322571 108.164085,114.947372 
	C109.390053,116.379829 110.522377,117.915314 111.906761,119.173454 
	C112.259804,119.494308 113.411926,118.935875 114.258125,118.427872 
	C114.554199,118.499374 114.789055,118.924454 115.069199,119.594925 
	C114.828125,120.687248 114.541756,121.534164 114.127304,122.690010 
	C113.999222,122.998940 113.504791,123.004417 113.257690,123.003448 
	C110.873260,122.004692 108.790764,120.854744 106.580902,120.058167 
	C104.871078,119.441833 103.001816,119.267868 101.461502,118.454193 
	C102.343231,117.323196 103.587059,116.526367 103.488533,115.965240 
	C102.907654,112.656921 102.014397,109.403450 101.228020,106.138550 
	C98.057556,107.411133 96.196220,114.265747 98.011345,118.180794 
	C97.225937,118.778648 96.440536,119.376503 95.311195,119.967621 
z"/>
<path fill="#4280C0" opacity="1.000000" stroke="none" 
	d="
M98.285660,118.069504 
	C96.196220,114.265747 98.057556,107.411133 101.228020,106.138550 
	C102.014397,109.403450 102.907654,112.656921 103.488533,115.965240 
	C103.587059,116.526367 102.343231,117.323196 101.352150,118.081482 
	C100.176476,118.087296 99.368225,118.022751 98.285660,118.069504 
z"/>
<path fill="#FBF5FB" opacity="1.000000" stroke="none" 
	d="
M124.294182,105.772545 
	C124.198555,105.304794 124.330917,104.671585 124.722260,104.023453 
	C124.828217,104.541389 124.675194,105.074234 124.294182,105.772545 
z"/>
<path fill="#FBF5FB" opacity="1.000000" stroke="none" 
	d="
M108.082428,114.631134 
	C104.784416,115.322571 104.085281,113.462357 103.909782,110.493118 
	C103.687119,106.725845 102.891968,102.992401 102.135002,97.817856 
	C99.647873,99.678192 98.464127,100.563622 97.121719,101.771164 
	C97.324203,100.022125 97.585663,97.927177 98.072723,95.886078 
	C98.631546,93.544258 99.390366,91.250175 100.109650,88.536575 
	C100.561211,89.263870 100.965431,90.389946 101.594101,91.739197 
	C103.222824,93.962967 104.627083,95.963554 106.045654,98.719933 
	C106.197853,101.599632 106.335732,103.723541 106.473618,105.847450 
	C106.542007,106.980896 106.610397,108.114342 106.466866,109.845337 
	C106.450844,110.953423 106.646751,111.463966 106.842651,111.974503 
	C107.228691,112.754639 107.614723,113.534767 108.082428,114.631134 
z"/>
<path fill="#EBE9FA" opacity="1.000000" stroke="none" 
	d="
M106.591309,105.451202 
	C106.335732,103.723541 106.197853,101.599632 106.107834,99.043991 
	C106.340134,100.759827 106.524567,102.907394 106.591309,105.451202 
z"/>
<path fill="#EBE9FA" opacity="1.000000" stroke="none" 
	d="
M106.879333,111.652527 
	C106.646751,111.463966 106.450844,110.953423 106.407547,110.268723 
	C106.678772,110.506546 106.797394,110.918549 106.879333,111.652527 
z"/>
</svg>